<svg xmlns="http://www.w3.org/2000/svg" xmlns:svg="http://www.w3.org/2000/svg" id="svg5" version="1.1" viewBox="0 0 32 32"><metadata id="metadata9"/><defs id="defs3051"><style id="current-color-scheme" type="text/css">.ColorScheme-Text{color:#eff0f1}</style></defs><path id="path891-3" d="m 9.789062,5.2443752 -0.867187,0.5 2.146484,3.716797 -3.615234,-0.96875 -0.257813,0.966796 4.580079,1.2265628 3.068359,5.316406 H 8.707031 L 5.353516,12.648672 4.646484,13.355703 7.292969,16.002187 H 3 v 1 h 4.292969 l -2.646485,2.646485 0.707032,0.707031 3.353515,-3.353516 h 6.136719 l -3.068359,5.316406 -4.580079,1.226563 0.257813,0.966797 3.615234,-0.96875 -2.146484,3.716797 0.867187,0.5 2.146485,-3.716797 0.96875,3.615234 0.964844,-0.259765 L 12.642578,22.818593 16,17.002187 l 3.357422,5.816406 -1.226563,4.580079 0.964844,0.259765 0.96875,-3.615234 2.146485,3.716797 0.867187,-0.5 -2.146484,-3.716797 3.615234,0.96875 0.257813,-0.966797 -4.580079,-1.226563 -3.068359,-5.316406 h 6.136719 l 3.353515,3.353516 0.707032,-0.707031 -2.646485,-2.646485 H 29 v -1 h -4.292969 l 2.007813,-2.001953 h -1.427735 l -1.99414,2.001953 H 17.15625 L 18.31,14.000234 h -1.16 l -1.15,2 -3.357422,-5.814453 1.226563,-4.5800778 -0.964844,-0.259766 -0.96875,3.615235 z m 15.544275,1.2869405 h 1.666666 V 7.3750876 H 23.66667 L 25.333337,4.8437719 H 23.666673 V 4 H 27 Z m -1.989669,5.6249123 h 1.666665 V 13 H 21.677 l 1.666668,-2.531315 H 21.677003 V 9.624913 h 3.333326 z m -4.677,-3.3748539 h 1.666665 V 9.625146 H 17 L 18.666668,7.0938303 H 17.000003 V 6.2500584 h 3.333327 z" class="ColorScheme-Text" style="color:#31363b;fill:#fcfcfc;fill-opacity:1;stroke:none"/></svg>