<svg xmlns="http://www.w3.org/2000/svg" xmlns:svg="http://www.w3.org/2000/svg" id="svg6" version="1.1" viewBox="0 0 32 32"><metadata id="metadata10"/><defs id="defs3051"><style id="current-color-scheme" type="text/css">.ColorScheme-Text{color:#eff0f1}</style></defs><path style="color:#eff0f1;fill:#fcfcfc;fill-opacity:1;stroke:none" id="path4" d="M 15,4 V 4.05078 5.054686 13 h 2 V 5.050781 4.046875 4 h -1 z m 3,0.169922 V 5.591 C 22.963705,6.7205624 26.484078,10.773948 26.6,16 26.19486,22.190886 21.612593,26.732154 16,26.6 10.240993,26.464399 5.7057812,22.075132 5.4,16 5.6847547,10.69852 9.124358,6.5529048 14,5.589 V 4.181641 C 8.2314026,5.1567079 4.0067289,10.149579 4,16 4,22.627417 9.372583,28 16,28 22.627417,28 28,22.627417 28,16 27.998984,10.145149 23.772961,5.1457305 18,4.169922 Z" class="ColorScheme-Text"/></svg>